# xmcd
#
# Track frame offsets:
#	150
#	21467
#	34479
#	46803
#	57370
#
# Disc length: 993 seconds
#
# Revision: 1
# Processed by: cddbd v1.5.2PL0 Copyright (c) Steve Scherf et al.
# Submitted via: EZCDAudioConverter 7.0.6.1
#
DISCID=4103df05
DTITLE=Kings - Bones
DYEAR=2016
DGENRE=
TTITLE0=Western Sky
TTITLE1=Wake Up Scared
TTITLE2=Carry Me Home
TTITLE3=That's Fine
TTITLE4=Wolf at the Door
EXTD=
EXTT0=
EXTT1=
EXTT2=
EXTT3=
EXTT4=
PLAYORDER=
